<svg xmlns="http://www.w3.org/2000/svg" width="484" height="134" viewBox="0 0 484 134"><rect x="8" y="8" width="140" height="118" rx="12" fill="#112A30" stroke="#2D5760" stroke-width="1.5"/><circle cx="26" cy="26" r="11" fill="#F4806D"/><text x="26" y="30.5" text-anchor="middle" font-size="13" font-weight="700" fill="#1C0B0A" font-family="'Segoe UI', 'Helvetica Neue', Arial, sans-serif">1</text><g transform="translate(60 22) scale(1.5)" fill="none" stroke="#6FD0C3" stroke-width="2" stroke-linecap="round" stroke-linejoin="round"><path d="M13.997 4a2 2 0 0 1 1.76 1.05l.486.9A2 2 0 0 0 18.003 7H20a2 2 0 0 1 2 2v9a2 2 0 0 1-2 2H4a2 2 0 0 1-2-2V9a2 2 0 0 1 2-2h1.997a2 2 0 0 0 1.759-1.048l.489-.904A2 2 0 0 1 10.004 4z"/><circle cx="12" cy="13" r="3"/></g><text x="78" y="82" text-anchor="middle" font-size="14" font-weight="600" fill="#F5EBD8" font-family="'Segoe UI', 'Helvetica Neue', Arial, sans-serif">Photo or upload of</text><text x="78" y="100" text-anchor="middle" font-size="14" font-weight="600" fill="#F5EBD8" font-family="'Segoe UI', 'Helvetica Neue', Arial, sans-serif">the galaxy map</text><path d="M152 67h14m-6 -5l6 5l-6 5" fill="none" stroke="#8FB3AD" stroke-width="2" stroke-linecap="round" stroke-linejoin="round"/><rect x="172" y="8" width="140" height="118" rx="12" fill="#112A30" stroke="#2D5760" stroke-width="1.5"/><circle cx="190" cy="26" r="11" fill="#F4806D"/><text x="190" y="30.5" text-anchor="middle" font-size="13" font-weight="700" fill="#1C0B0A" font-family="'Segoe UI', 'Helvetica Neue', Arial, sans-serif">2</text><g transform="translate(224 22) scale(1.5)" fill="none" stroke="#6FD0C3" stroke-width="2" stroke-linecap="round" stroke-linejoin="round"><path d="M3 7V5a2 2 0 0 1 2-2h2"/><path d="M17 3h2a2 2 0 0 1 2 2v2"/><path d="M21 17v2a2 2 0 0 1-2 2h-2"/><path d="M7 21H5a2 2 0 0 1-2-2v-2"/><path d="M7 12h10"/></g><text x="242" y="82" text-anchor="middle" font-size="14" font-weight="600" fill="#F5EBD8" font-family="'Segoe UI', 'Helvetica Neue', Arial, sans-serif">Read on your</text><text x="242" y="100" text-anchor="middle" font-size="14" font-weight="600" fill="#F5EBD8" font-family="'Segoe UI', 'Helvetica Neue', Arial, sans-serif">device</text><path d="M316 67h14m-6 -5l6 5l-6 5" fill="none" stroke="#8FB3AD" stroke-width="2" stroke-linecap="round" stroke-linejoin="round"/><rect x="336" y="8" width="140" height="118" rx="12" fill="#112A30" stroke="#2D5760" stroke-width="1.5"/><circle cx="354" cy="26" r="11" fill="#F4806D"/><text x="354" y="30.5" text-anchor="middle" font-size="13" font-weight="700" fill="#1C0B0A" font-family="'Segoe UI', 'Helvetica Neue', Arial, sans-serif">3</text><g transform="translate(388 22) scale(1.5)" fill="none" stroke="#7FD89A" stroke-width="2" stroke-linecap="round" stroke-linejoin="round"><path d="M20 6 9 17l-5-5"/></g><text x="406" y="82" text-anchor="middle" font-size="14" font-weight="600" fill="#F5EBD8" font-family="'Segoe UI', 'Helvetica Neue', Arial, sans-serif">Check the form,</text><text x="406" y="100" text-anchor="middle" font-size="14" font-weight="600" fill="#F5EBD8" font-family="'Segoe UI', 'Helvetica Neue', Arial, sans-serif">then Save</text></svg>
